<?xml version="1.0" encoding="utf-8"?>
<!-- Generator: Adobe Illustrator 24.0.0, SVG Export Plug-In . SVG Version: 6.00 Build 0)  -->
<svg version="1.1" id="Layer_1" xmlns="http://www.w3.org/2000/svg" xmlns:xlink="http://www.w3.org/1999/xlink" x="0px" y="0px"
	 viewBox="0 0 500 192.28" style="enable-background:new 0 0 500 192.28;" xml:space="preserve">
<style type="text/css">
	.st0{fill:#60A8AC;}
	.st1{fill:#C33446;}
	.st2{fill:#DB9434;}
	.st3{fill:#FAFBF9;}
	.st4{fill:#EBEBF2;}
</style>
<g>
	<g>
		<g>
			<g>
				<g>
					<path class="st0" d="M164.86,133.9h12.54c9.35,0,16.41,6.15,16.41,16.21c0,10.06-7.06,16.22-16.41,16.22h-12.54V133.9z
						 M176.45,158.98c5.24,0,8.49-3.48,8.49-8.87c0-5.39-3.24-8.87-8.49-8.87h-2.91v17.74H176.45z"/>
				</g>
			</g>
			<g>
				<g>
					<path class="st0" d="M197.87,133.9h8.68v32.43h-8.68V133.9z"/>
				</g>
			</g>
			<g>
				<g>
					<path class="st0" d="M209.74,160.79l6.29-4.72c1.57,1.96,3.53,3.53,6.77,3.53c2.57,0,4.1-0.76,4.1-2.58
						c0-1.38-1.05-2.05-3.19-2.77l-3.82-1.29c-4.72-1.57-8.06-4.43-8.06-9.78c0-6.39,5.29-9.68,11.06-9.68
						c5.72,0,8.87,2.05,10.78,4.29l-4.96,5.2c-1.33-1.38-2.77-2.34-5.34-2.34c-2.1,0-3.15,0.95-3.15,2.24
						c0,1.24,0.72,1.86,2.29,2.39l4.29,1.43c6.49,2.15,8.68,5.25,8.68,9.82c0,5.96-3.72,10.25-12.3,10.25
						C215.89,166.8,211.74,163.46,209.74,160.79z"/>
				</g>
			</g>
			<g>
				<g>
					<path class="st0" d="M239.45,133.9h22.75v7.3h-14.07v7.54h11.73v6.91h-11.73v3.39h14.74v7.3h-23.42V133.9z"/>
				</g>
			</g>
			<g>
				<g>
					<path class="st0" d="M275.22,150.16v16.17h-8.16v-32.86c0-0.29,0.14-0.52,0.67-0.1l20.37,16.79V133.9h8.15v32.91
						c0,0.38-0.14,0.52-0.67,0.09L275.22,150.16z M279.46,130.27c-0.81,0-1.14,0.57-1.43,1.62l-5.25-0.67
						c0.67-4.96,3.29-7.15,5.96-7.15c2.38,0,4.1,1.86,5.1,1.86c0.81,0,1.14-0.57,1.43-1.62l5.25,0.67
						c-0.62,4.86-3.29,7.15-5.96,7.15C282.18,132.13,280.47,130.27,279.46,130.27z"/>
				</g>
			</g>
			<g>
				<g>
					<path class="st0" d="M300.3,150.11c0-9.78,8.06-16.6,17.41-16.6c9.35,0,17.41,6.82,17.41,16.6s-8.06,16.64-17.41,16.64
						C308.36,166.75,300.3,159.89,300.3,150.11z M326.25,150.11c0-5.1-3.1-9.06-8.54-9.06c-5.44,0-8.54,3.96-8.54,9.06
						c0,5.1,3.1,9.11,8.54,9.11C323.15,159.22,326.25,155.21,326.25,150.11z"/>
				</g>
			</g>
		</g>
		<g>
			<g>
				<g>
					<path class="st0" d="M207.31,25.76c0.13-0.9,0.64-0.77,1.16-0.13l41.85,46.98l41.2-46.98c0.51-0.64,1.03-0.77,1.16,0.13
						l5.14,88.19h-22.98l-2.06-37.23l-21.82,25.29c-0.38,0.38-0.77,0.38-1.16,0l-22.72-25.42l-2.05,37.35h-22.85L207.31,25.76z"/>
				</g>
			</g>
			<g>
				<g>
					<path class="st0" d="M307.72,69.97c0-26.13,20.56-44.35,44.41-44.35c23.85,0,44.42,18.22,44.42,44.35
						c0,26.13-20.57,44.48-44.42,44.48C328.28,114.45,307.72,96.1,307.72,69.97z M373.91,69.97c0-13.64-7.91-24.21-21.78-24.21
						c-13.87,0-21.78,10.58-21.78,24.21c0,13.64,7.91,24.34,21.78,24.34C366,94.31,373.91,83.61,373.91,69.97z"/>
				</g>
			</g>
			<g>
				<g>
					<path class="st0" d="M439.32,114.32c-22.91,0-32.83-11.45-32.83-27.36c0-12.22,5.86-20.49,23.16-26.22l11.45-3.82
						c4.2-1.4,6.11-3.05,6.11-6.36c0-3.44-2.8-5.98-8.4-5.98c-6.87,0-10.69,2.55-14.25,6.24l-13.23-13.87
						c5.09-5.98,13.49-11.45,28.76-11.45c15.4,0,29.52,8.78,29.52,25.83c0,14.25-8.91,21.89-21.51,26.09l-10.18,3.44
						c-5.73,1.91-8.53,3.69-8.53,7.38c0,4.84,4.07,6.87,10.94,6.87c8.65,0,13.87-4.2,18.07-9.42l16.8,12.6
						C469.86,105.41,458.79,114.32,439.32,114.32z"/>
				</g>
			</g>
			<g>
				<g>
					<path class="st0" d="M147.85,114.45c-23.85,0-44.42-18.35-44.42-44.48c0-26.13,20.57-44.35,44.42-44.35
						c23.85,0,44.41,18.22,44.41,44.35C192.27,96.1,171.7,114.45,147.85,114.45z M147.85,94.31c13.87,0,21.78-10.71,21.78-24.34
						c0-13.64-7.91-24.21-21.78-24.21c-13.87,0-21.78,10.58-21.78,24.21C126.07,83.61,133.98,94.31,147.85,94.31z"/>
				</g>
			</g>
			<g>
				<g>
					<g>
						<g>
							<path class="st0" d="M24.78,98.28l16.8-12.6c4.2,5.22,9.42,9.42,18.07,9.42c6.87,0,10.94-2.04,10.94-6.87
								c0-3.69-2.8-5.47-8.53-7.38l-10.18-3.44c-12.6-4.2-21.51-11.83-21.51-26.09c0-17.05,14.13-25.83,29.52-25.83
								c15.27,0,23.67,5.47,28.76,11.45L75.43,50.82c-3.56-3.69-7.38-6.24-14.25-6.24c-5.6,0-8.4,2.55-8.4,5.98
								c0,3.31,1.91,4.96,6.11,6.36l11.45,3.82c17.31,5.73,23.16,14,23.16,26.22c0,15.91-9.93,27.36-32.83,27.36
								C41.19,114.32,30.12,105.41,24.78,98.28z"/>
						</g>
					</g>
					<g>
						<path class="st1" d="M489.9,96.18c-0.56-3.9-2.64-7.42-5.79-9.78l-10.19-7.64c8.79-9.3,10.53-20.24,10.53-27.44
							c0-23.57-18.66-40.68-44.37-40.68c-17.18,0-30.66,5.61-40.07,16.68c-1.09,1.28-1.91,2.71-2.5,4.2
							c-10.79-12.76-26.98-20.75-45.39-20.75c-17.81,0-33.55,7.48-44.32,19.52l-0.31-5.4c-0.03-0.42-0.07-0.84-0.13-1.25
							c-1.12-7.75-7.48-13.37-15.13-13.37c-4.58,0-8.93,2.08-12,5.71L250.23,50.2l-30.53-34.28c-3.08-3.6-7.4-5.64-11.95-5.64
							c-7.66,0-14.03,5.64-15.13,13.4c-0.06,0.41-0.1,0.81-0.12,1.22l-0.31,5.41c-10.77-12.05-26.51-19.52-44.32-19.52
							c-18.41,0-34.6,7.99-45.39,20.75c-0.59-1.49-1.41-2.92-2.5-4.2c-9.42-11.07-22.9-16.68-40.07-16.68
							c-25.71,0-44.37,17.11-44.37,40.68c0,7.2,1.74,18.15,10.53,27.44l-10.19,7.64c-6.56,4.92-7.89,14.22-2.97,20.78
							c6.15,8.21,20.54,21.98,47.76,21.98c22.25,0,35.42-8.73,42.1-20.32c10.79,12.58,26.85,20.45,45.08,20.45
							c0.98,0,1.96-0.03,2.93-0.07c-0.49,1.47-0.76,3.04-0.76,4.67v32.43c0,8.2,6.65,14.84,14.84,14.84h12.54
							c4.52,0,8.74-0.82,12.51-2.32c2.3,1.46,5.02,2.32,7.94,2.32h8.68c2.08,0,4.07-0.43,5.87-1.21c3.36,1.1,6.99,1.69,10.78,1.69
							c3.78,0,7.27-0.59,10.43-1.67c1.79,0.77,3.76,1.19,5.83,1.19h23.42c0.71,0,1.41-0.07,2.1-0.17c0.69,0.1,1.38,0.17,2.1,0.17
							h8.16c3.77,0,7.21-1.4,9.83-3.72l1.1,0.9c3.66,3.02,7.42,3.65,9.92,3.65c3.29,0,6.33-1.09,8.81-2.91
							c3.91,1.61,8.25,2.51,12.83,2.51c18.08,0,32.25-13.83,32.25-31.49c0-8.55-3.34-16.2-8.84-21.81c3.56,0.64,7.23,1,11.01,1
							c18.24,0,34.3-7.86,45.09-20.45c6.68,11.58,19.86,20.32,42.1,20.32c27.22,0,41.61-13.77,47.77-21.97
							C489.45,104.04,490.46,100.08,489.9,96.18z M279.88,61.41l0.14,2.35c-0.5-0.28-1.01-0.53-1.54-0.75L279.88,61.41z
							 M239.94,113.11c5.53,4.96,14.23,5.25,20.02,0.72l0.05,0.94c0.08,1.5,0.39,2.94,0.88,4.29h-21.44c-0.17,0-0.33,0.02-0.5,0.03
							c0.5-1.36,0.81-2.8,0.9-4.32L239.94,113.11z M220.12,61.04l1.54,1.73c-0.58,0.23-1.15,0.49-1.69,0.79L220.12,61.04z
							 M140.92,69.97c0-9.37,5.22-9.37,6.94-9.37c1.71,0,6.94,0,6.94,9.37c0,6.3-2.33,9.5-6.94,9.5S140.92,76.27,140.92,69.97z
							 M187.35,114.53c0.09,2.32,0.74,4.57,1.86,6.59c-2.49-0.92-5.15-1.56-7.97-1.85C183.38,117.83,185.42,116.24,187.35,114.53z
							 M317.71,151.91c-0.11,0-2.56-0.02-2.56-1.8c0-1.73,2.46-1.75,2.56-1.75c0.11,0,2.56,0.02,2.56,1.75
							C320.27,151.89,317.82,151.91,317.71,151.91z M317.71,118.67c-2.07,0-4.08,0.19-6.03,0.54c0.56-1.49,0.89-3.06,0.96-4.67
							c1.67,1.48,3.43,2.86,5.26,4.14C317.84,118.67,317.78,118.67,317.71,118.67z M352.13,79.47c-4.6,0-6.94-3.2-6.94-9.5
							c0-9.37,5.22-9.37,6.94-9.37c1.71,0,6.94,0,6.94,9.37C359.07,76.27,356.73,79.47,352.13,79.47z"/>
					</g>
					<g>
						<path d="M489.9,96.18c-0.56-3.9-2.64-7.42-5.79-9.78l-10.19-7.64c8.79-9.3,10.53-20.24,10.53-27.44
							c0-23.57-18.66-40.68-44.37-40.68c-17.18,0-30.66,5.61-40.07,16.68c-1.09,1.28-1.91,2.71-2.5,4.2
							c-10.79-12.76-26.98-20.75-45.39-20.75c-17.81,0-33.55,7.48-44.32,19.52l-0.31-5.4c-0.03-0.42-0.07-0.84-0.13-1.25
							c-1.12-7.75-7.48-13.37-15.13-13.37c-4.58,0-8.93,2.08-12,5.71L250.23,50.2l-30.53-34.28c-3.08-3.6-7.4-5.64-11.95-5.64
							c-7.66,0-14.03,5.64-15.13,13.4c-0.06,0.41-0.1,0.81-0.12,1.22l-0.31,5.41c-10.77-12.05-26.51-19.52-44.32-19.52
							c-18.41,0-34.6,7.99-45.39,20.75c-0.59-1.49-1.41-2.92-2.5-4.2c-9.42-11.07-22.9-16.68-40.07-16.68
							c-25.71,0-44.37,17.11-44.37,40.68c0,7.2,1.74,18.15,10.53,27.44l-10.19,7.64c-6.56,4.92-7.89,14.22-2.97,20.78
							c6.15,8.21,20.54,21.98,47.76,21.98c22.25,0,35.42-8.73,42.1-20.32c10.79,12.58,26.85,20.45,45.08,20.45
							c0.98,0,1.96-0.03,2.93-0.07c-0.49,1.47-0.76,3.04-0.76,4.67v32.43c0,8.2,6.65,14.84,14.84,14.84h12.54
							c4.52,0,8.74-0.82,12.51-2.32c2.3,1.46,5.02,2.32,7.94,2.32h8.68c2.08,0,4.07-0.43,5.87-1.21c3.36,1.1,6.99,1.69,10.78,1.69
							c3.78,0,7.27-0.59,10.43-1.67c1.79,0.77,3.76,1.19,5.83,1.19h23.42c0.71,0,1.41-0.07,2.1-0.17c0.69,0.1,1.38,0.17,2.1,0.17
							h8.16c3.77,0,7.21-1.4,9.83-3.72l1.1,0.9c3.66,3.02,7.42,3.65,9.92,3.65c3.29,0,6.33-1.09,8.81-2.91
							c3.91,1.61,8.25,2.51,12.83,2.51c18.08,0,32.25-13.83,32.25-31.49c0-8.55-3.34-16.2-8.84-21.81c3.56,0.64,7.23,1,11.01,1
							c18.24,0,34.3-7.86,45.09-20.45c6.68,11.58,19.86,20.32,42.1,20.32c27.22,0,41.61-13.77,47.77-21.97
							C489.45,104.04,490.46,100.08,489.9,96.18z M279.88,61.41l0.14,2.35c-0.5-0.28-1.01-0.53-1.54-0.75L279.88,61.41z
							 M239.94,113.11c5.53,4.96,14.23,5.25,20.02,0.72l0.05,0.94c0.08,1.5,0.39,2.94,0.88,4.29h-21.44c-0.17,0-0.33,0.02-0.5,0.03
							c0.5-1.36,0.81-2.8,0.9-4.32L239.94,113.11z M220.12,61.04l1.54,1.73c-0.58,0.23-1.15,0.49-1.69,0.79L220.12,61.04z
							 M140.92,69.97c0-9.37,5.22-9.37,6.94-9.37c1.71,0,6.94,0,6.94,9.37c0,6.3-2.33,9.5-6.94,9.5S140.92,76.27,140.92,69.97z
							 M187.35,114.53c0.09,2.32,0.74,4.57,1.86,6.59c-2.49-0.92-5.15-1.56-7.97-1.85C183.38,117.83,185.42,116.24,187.35,114.53z
							 M317.71,151.91c-0.11,0-2.56-0.02-2.56-1.8c0-1.73,2.46-1.75,2.56-1.75c0.11,0,2.56,0.02,2.56,1.75
							C320.27,151.89,317.82,151.91,317.71,151.91z M317.71,118.67c-2.07,0-4.08,0.19-6.03,0.54c0.56-1.49,0.89-3.06,0.96-4.67
							c1.67,1.48,3.43,2.86,5.26,4.14C317.84,118.67,317.78,118.67,317.71,118.67z M352.13,79.47c-4.6,0-6.94-3.2-6.94-9.5
							c0-9.37,5.22-9.37,6.94-9.37c1.71,0,6.94,0,6.94,9.37C359.07,76.27,356.73,79.47,352.13,79.47z"/>
						<path d="M296.07,191.95c-3,0-7.08-0.54-11.37-2.72c-2.98,1.23-6.2,1.88-9.48,1.88h-8.16c-0.68,0-1.37-0.03-2.1-0.1
							c-0.72,0.07-1.42,0.1-2.1,0.1h-23.42c-2.04,0-4.05-0.25-6.01-0.74c-6.64,1.63-14.05,1.6-20.8-0.02
							c-1.98,0.5-4.02,0.76-6.1,0.76h-8.68c-2.97,0-5.89-0.53-8.64-1.56c-3.77,1.04-7.73,1.56-11.82,1.56h-12.54
							c-13.67,0-24.79-11.12-24.79-24.79v-27.51c-13.44-1.47-26.03-6.74-36.3-15.14c-10.16,10.03-25.05,15.43-43.11,15.43
							c-31.55,0-48.45-16.26-55.72-25.95c-8.2-10.93-5.97-26.5,4.96-34.7l2.29-1.72c-5.3-9.13-6.6-18.46-6.6-25.41
							C5.59,22.47,28.94,0.7,59.9,0.7c17.93,0,32.57,5.34,43.6,15.89c12.27-10.12,27.89-15.76,44.36-15.76
							c13.89,0,27.27,4.06,38.5,11.44C190.82,5,198.74,0.33,207.74,0.33c7.4,0,14.48,3.29,19.43,9.04l22.99,25.82l22.54-25.69
							c4.96-5.82,12.08-9.16,19.53-9.16c9,0,16.92,4.67,21.39,11.95c11.23-7.39,24.61-11.44,38.5-11.44
							c16.46,0,32.09,5.64,44.36,15.76C407.51,6.04,422.15,0.7,440.09,0.7c30.96,0,54.31,21.76,54.31,50.62
							c0,6.95-1.3,16.28-6.61,25.41l2.29,1.72c5.22,3.91,8.75,9.87,9.67,16.33c0.94,6.54-0.73,13.07-4.71,18.38
							c-7.26,9.69-24.17,25.95-55.72,25.95c-18.06,0-32.95-5.4-43.11-15.43c-10.65,8.71-23.81,14.05-37.81,15.29
							c0.99,3.58,1.51,7.33,1.51,11.15c0,23.23-18.53,41.43-42.19,41.43c-4.07,0-8.04-0.54-11.85-1.61
							C302.78,191.26,299.47,191.95,296.07,191.95z M284.81,164.39l7.65,6.29c1.12,0.92,2.33,1.39,3.61,1.39
							c1.31,0,2.31-0.53,2.92-0.98l4.51-3.32l5.18,2.14c2.82,1.16,5.86,1.76,9.04,1.76c12.51,0,22.31-9.46,22.31-21.54
							c0-5.63-2.13-10.91-6-14.86l-6.5-6.64l-9.92,0c-1.39,0.01-2.79,0.13-4.18,0.38l-17.25,3.06l6.21-16.38
							c0.19-0.5,0.3-1.02,0.32-1.54l0.84-20.93l15.69,13.89c1.37,1.21,2.83,2.36,4.36,3.43l8.7,6.07l10.61,1.92
							c3.07,0.56,6.18,0.84,9.24,0.84c14.61,0,28.29-6.19,37.54-16.98l9.14-10.67l7.02,12.17c5.79,10.04,17.37,15.35,33.49,15.35
							c22.9,0,34.77-11.27,39.81-18c0.79-1.05,1.12-2.34,0.93-3.63c-0.18-1.29-0.88-2.46-1.91-3.23l-19.11-14.33l7.66-8.1
							c6.46-6.83,7.81-14.98,7.81-20.61c0-18.1-14.16-30.74-34.42-30.74c-14.33,0-24.96,4.31-32.5,13.18
							c-0.33,0.39-0.61,0.86-0.82,1.39l-6.08,15.52l-10.76-12.73c-9.25-10.95-23.03-17.23-37.79-17.23
							c-14.45,0-27.56,5.76-36.91,16.21l-15.95,17.83l-1.7-29.28c-0.01-0.11-0.02-0.29-0.05-0.47c-0.4-2.8-2.58-4.79-5.28-4.79
							c-1.65,0-3.22,0.78-4.42,2.19l-0.11,0.13l-37.42,42.67l-38.14-42.83c-1.2-1.4-2.76-2.17-4.4-2.17c-2.71,0-4.88,2-5.29,4.86
							c-0.02,0.11-0.03,0.26-0.04,0.4l-1.71,29.28l-15.94-17.82c-9.35-10.45-22.46-16.21-36.91-16.21
							c-14.76,0-28.54,6.28-37.79,17.23L99.3,50.67l-6.09-15.52c-0.21-0.53-0.48-0.99-0.82-1.39c-7.55-8.87-18.18-13.18-32.5-13.18
							c-20.27,0-34.43,12.64-34.43,30.74c0,5.63,1.35,13.78,7.81,20.61l7.65,8.1l-19.1,14.33c-2.16,1.62-2.6,4.7-0.98,6.86
							c5.04,6.72,16.91,18,39.81,18c16.35,0,27.62-5.16,33.49-15.34l7.02-12.17l9.14,10.66c9.25,10.79,22.93,16.97,37.54,16.97
							c0.83,0,1.65-0.02,2.47-0.06l14.03-0.65l11.35-7.62c1.72-1.15,3.42-2.47,5.06-3.93l15.7-13.9l0.83,20.95
							c0.03,0.74,0.25,1.49,0.62,2.17l12.97,23.45l-25.13-9.31c-1.76-0.65-3.63-1.09-5.56-1.29l-18.27-1.94l-1.7,5.13
							c-0.17,0.51-0.26,1.03-0.26,1.54v32.43c0,2.7,2.2,4.9,4.9,4.9h12.54c3.17,0,6.15-0.54,8.83-1.61l4.72-1.88l4.29,2.73
							c0.8,0.51,1.68,0.77,2.61,0.77h8.68c0.67,0,1.32-0.13,1.93-0.4l3.45-1.49l3.57,1.17c4.74,1.55,10.38,1.6,14.91,0.05l3.61-1.23
							l3.51,1.5c0.61,0.26,1.25,0.39,1.92,0.39h23.42c0.11,0,0.32-0.01,0.7-0.07l1.39-0.2l1.39,0.2c0.39,0.05,0.6,0.07,0.71,0.07
							h8.16c1.53,0,2.61-0.66,3.24-1.22L284.81,164.39z M317.71,161.85c-7.01,0-12.51-5.16-12.51-11.74
							c0-6.67,5.38-11.69,12.51-11.69c7.13,0,12.5,5.03,12.5,11.69C330.22,156.69,324.72,161.85,317.71,161.85z M317.71,141.97
							c-3.93,0-7.38,3.81-7.38,8.14c0,4.69,3.9,8.19,7.38,8.19c3.48,0,7.38-3.5,7.38-8.19
							C325.09,145.77,321.64,141.97,317.71,141.97z M224.52,129.5l5.11-13.86c0.17-0.46,0.27-0.94,0.3-1.42l1.22-22.35l15.43,13.85
							c1.85,1.66,5.32,1.8,7.25,0.29l14.94-11.69l1.16,19.88c0.03,0.52,0.13,0.99,0.3,1.45l4.89,13.36h-35.43
							c-0.14,0.01-0.27,0.02-0.4,0.02L224.52,129.5z M352.13,89.41c-7.79,0-16.88-5.09-16.88-19.44c0-11.73,6.63-19.31,16.88-19.31
							c10.25,0,16.88,7.58,16.88,19.31C369.01,84.32,359.92,89.41,352.13,89.41z M147.85,89.41c-7.79,0-16.88-5.09-16.88-19.44
							c0-11.73,6.62-19.31,16.88-19.31s16.88,7.58,16.88,19.31C164.73,84.32,155.64,89.41,147.85,89.41z M291.02,81.28l-15.85-8.84
							c-0.17-0.1-0.35-0.18-0.53-0.26l-12.76-5.33l26.48-30.23L291.02,81.28z M209.01,80.83l2.58-44.31l26.99,30.29l-13.28,5.22
							c-0.2,0.08-0.39,0.17-0.57,0.27L209.01,80.83z"/>
					</g>
				</g>
			</g>
		</g>
	</g>
	<g>
		<path class="st1" d="M489.9,96.18c-0.56-3.9-2.64-7.42-5.79-9.78l-10.19-7.64c8.79-9.3,10.53-20.24,10.53-27.44
			c0-23.57-18.66-40.68-44.37-40.68c-17.18,0-30.66,5.61-40.07,16.68c-1.09,1.28-1.91,2.71-2.5,4.2
			c-10.79-12.76-26.98-20.75-45.39-20.75c-17.81,0-33.55,7.48-44.32,19.52l-0.31-5.4c-0.03-0.42-0.07-0.84-0.13-1.25
			c-1.12-7.75-7.48-13.37-15.13-13.37c-4.58,0-8.93,2.08-12,5.71L250.23,50.2l-30.53-34.28c-3.08-3.6-7.4-5.64-11.95-5.64
			c-7.66,0-14.03,5.64-15.13,13.4c-0.06,0.41-0.1,0.81-0.12,1.22l-0.31,5.41c-10.77-12.05-26.51-19.52-44.32-19.52
			c-18.41,0-34.6,7.99-45.39,20.75c-0.59-1.49-1.41-2.92-2.5-4.2c-9.42-11.07-22.9-16.68-40.07-16.68
			c-25.71,0-44.37,17.11-44.37,40.68c0,7.2,1.74,18.15,10.53,27.44l-10.19,7.64c-6.56,4.92-7.89,14.22-2.97,20.78
			c6.15,8.21,20.54,21.98,47.76,21.98c22.25,0,35.42-8.73,42.1-20.32c10.79,12.58,26.85,20.45,45.08,20.45
			c0.98,0,1.96-0.03,2.93-0.07c-0.49,1.47-0.76,3.04-0.76,4.67v32.43c0,8.2,6.65,14.84,14.84,14.84h12.54
			c4.52,0,8.74-0.82,12.51-2.32c2.3,1.46,5.02,2.32,7.94,2.32h8.68c2.08,0,4.07-0.43,5.87-1.21c3.36,1.1,6.99,1.69,10.78,1.69
			c3.78,0,7.27-0.59,10.43-1.67c1.79,0.77,3.76,1.19,5.83,1.19h23.42c0.71,0,1.41-0.07,2.1-0.17c0.69,0.1,1.38,0.17,2.1,0.17h8.16
			c3.77,0,7.21-1.4,9.83-3.72l1.1,0.9c3.66,3.02,7.42,3.65,9.92,3.65c3.29,0,6.33-1.09,8.81-2.91c3.91,1.61,8.25,2.51,12.83,2.51
			c18.08,0,32.25-13.83,32.25-31.49c0-8.55-3.34-16.2-8.84-21.81c3.56,0.64,7.23,1,11.01,1c18.24,0,34.3-7.86,45.09-20.45
			c6.68,11.58,19.86,20.32,42.1,20.32c27.22,0,41.61-13.77,47.77-21.97C489.45,104.04,490.46,100.08,489.9,96.18z M279.88,61.41
			l0.14,2.35c-0.5-0.28-1.01-0.53-1.54-0.75L279.88,61.41z M239.94,113.11c5.53,4.96,14.23,5.25,20.02,0.72l0.05,0.94
			c0.08,1.5,0.39,2.94,0.88,4.29h-21.44c-0.17,0-0.33,0.02-0.5,0.03c0.5-1.36,0.81-2.8,0.9-4.32L239.94,113.11z M220.12,61.04
			l1.54,1.73c-0.58,0.23-1.15,0.49-1.69,0.79L220.12,61.04z M140.92,69.97c0-9.37,5.22-9.37,6.94-9.37c1.71,0,6.94,0,6.94,9.37
			c0,6.3-2.33,9.5-6.94,9.5S140.92,76.27,140.92,69.97z M187.35,114.53c0.09,2.32,0.74,4.57,1.86,6.59
			c-2.49-0.92-5.15-1.56-7.97-1.85C183.38,117.83,185.42,116.24,187.35,114.53z M317.71,151.91c-0.11,0-2.56-0.02-2.56-1.8
			c0-1.73,2.46-1.75,2.56-1.75c0.11,0,2.56,0.02,2.56,1.75C320.27,151.89,317.82,151.91,317.71,151.91z M317.71,118.67
			c-2.07,0-4.08,0.19-6.03,0.54c0.56-1.49,0.89-3.06,0.96-4.67c1.67,1.48,3.43,2.86,5.26,4.14
			C317.84,118.67,317.78,118.67,317.71,118.67z M352.13,79.47c-4.6,0-6.94-3.2-6.94-9.5c0-9.37,5.22-9.37,6.94-9.37
			c1.71,0,6.94,0,6.94,9.37C359.07,76.27,356.73,79.47,352.13,79.47z"/>
	</g>
	<g>
		<g>
			<g>
				<g>
					<g>
						<path class="st0" d="M164.86,133.9h12.54c9.35,0,16.41,6.15,16.41,16.21c0,10.06-7.06,16.22-16.41,16.22h-12.54V133.9z
							 M176.45,158.98c5.24,0,8.49-3.48,8.49-8.87c0-5.39-3.24-8.87-8.49-8.87h-2.91v17.74H176.45z"/>
					</g>
				</g>
				<g>
					<g>
						<path class="st2" d="M177.41,176.22h-12.54c-5.47,0-9.9-4.43-9.9-9.9V133.9c0-5.46,4.43-9.9,9.9-9.9h12.54
							c15.24,0,26.3,10.98,26.3,26.11C203.71,165.24,192.65,176.22,177.41,176.22z"/>
					</g>
				</g>
			</g>
			<g>
				<g>
					<g>
						<path class="st0" d="M197.87,133.9h8.68v32.43h-8.68V133.9z"/>
					</g>
				</g>
				<g>
					<g>
						<path class="st2" d="M206.54,176.22h-8.68c-5.47,0-9.9-4.43-9.9-9.9V133.9c0-5.46,4.43-9.9,9.9-9.9h8.68
							c5.47,0,9.9,4.43,9.9,9.9v32.43C216.44,171.79,212.01,176.22,206.54,176.22z"/>
					</g>
				</g>
			</g>
			<g>
				<g>
					<g>
						<path class="st0" d="M209.74,160.79l6.29-4.72c1.57,1.96,3.53,3.53,6.77,3.53c2.57,0,4.1-0.76,4.1-2.58
							c0-1.38-1.05-2.05-3.19-2.77l-3.82-1.29c-4.72-1.57-8.06-4.43-8.06-9.78c0-6.39,5.29-9.68,11.06-9.68
							c5.72,0,8.87,2.05,10.78,4.29l-4.96,5.2c-1.33-1.38-2.77-2.34-5.34-2.34c-2.1,0-3.15,0.95-3.15,2.24
							c0,1.24,0.72,1.86,2.29,2.39l4.29,1.43c6.49,2.15,8.68,5.25,8.68,9.82c0,5.96-3.72,10.25-12.3,10.25
							C215.89,166.8,211.74,163.46,209.74,160.79z"/>
					</g>
				</g>
				<g>
					<g>
						<path class="st2" d="M223.19,176.7c-8.83,0-16.62-3.63-21.37-9.97c-1.57-2.1-2.25-4.74-1.88-7.34
							c0.37-2.6,1.76-4.94,3.86-6.52l0.43-0.32c-1.5-2.75-2.29-5.91-2.29-9.36c0-11.16,9.01-19.58,20.96-19.58
							c9.67,0,15.3,4.23,18.32,7.78c3.2,3.75,3.13,9.27-0.1,12.94c3.34,3.93,4.27,8.44,4.27,12.22
							C245.39,166.58,238.53,176.7,223.19,176.7z"/>
					</g>
				</g>
			</g>
			<g>
				<g>
					<g>
						<path class="st0" d="M239.45,133.9h22.75v7.3h-14.07v7.54h11.73v6.91h-11.73v3.39h14.74v7.3h-23.42V133.9z"/>
					</g>
				</g>
				<g>
					<g>
						<path class="st2" d="M262.87,176.22h-23.42c-5.47,0-9.9-4.43-9.9-9.9V133.9c0-5.46,4.43-9.9,9.9-9.9h22.75
							c5.47,0,9.9,4.43,9.9,9.9v7.3c0,2.47-0.9,4.72-2.39,6.45c0.04,0.36,0.06,0.72,0.06,1.08v3.2c1.85,1.8,3,4.32,3,7.1v7.3
							C272.77,171.79,268.33,176.22,262.87,176.22z"/>
					</g>
				</g>
			</g>
			<g>
				<g>
					<g>
						<path class="st0" d="M275.22,150.16v16.17h-8.16v-32.86c0-0.29,0.14-0.52,0.67-0.1l20.37,16.79V133.9h8.15v32.91
							c0,0.38-0.14,0.52-0.67,0.09L275.22,150.16z M279.46,130.27c-0.81,0-1.14,0.57-1.43,1.62l-5.25-0.67
							c0.67-4.96,3.29-7.15,5.96-7.15c2.38,0,4.1,1.86,5.1,1.86c0.81,0,1.14-0.57,1.43-1.62l5.25,0.67
							c-0.62,4.86-3.29,7.15-5.96,7.15C282.18,132.13,280.47,130.27,279.46,130.27z"/>
					</g>
				</g>
				<g>
					<g>
						<path class="st2" d="M296.07,177.06c-1.69,0-4.24-0.44-6.77-2.52l-5.05-4.15c-1.55,3.44-5.01,5.83-9.03,5.83h-8.16
							c-5.47,0-9.9-4.43-9.9-9.9v-32.86c0-4.76,3.24-8.78,7.6-9.91c2.97-6.44,8.69-9.38,13.98-9.38c1.5,0,2.85,0.23,4.03,0.56
							c1.19-0.32,2.46-0.41,3.75-0.25l5.25,0.67c2.6,0.33,4.97,1.68,6.58,3.76c1.34,1.73,2.06,3.84,2.07,6
							c3.38,1.57,5.72,5,5.72,8.98v32.91C306.15,172.55,301.72,177.06,296.07,177.06z"/>
					</g>
				</g>
			</g>
			<g>
				<g>
					<g>
						<path class="st0" d="M300.3,150.11c0-9.78,8.06-16.6,17.41-16.6c9.35,0,17.41,6.82,17.41,16.6s-8.06,16.64-17.41,16.64
							C308.36,166.75,300.3,159.89,300.3,150.11z M326.25,150.11c0-5.1-3.1-9.06-8.54-9.06c-5.44,0-8.54,3.96-8.54,9.06
							c0,5.1,3.1,9.11,8.54,9.11C323.15,159.22,326.25,155.21,326.25,150.11z"/>
					</g>
				</g>
				<g>
					<g>
						<path class="st2" d="M317.71,176.65c-15.31,0-27.31-11.66-27.31-26.54c0-14.86,11.99-26.49,27.31-26.49
							c15.31,0,27.3,11.64,27.3,26.49C345.01,164.99,333.02,176.65,317.71,176.65z"/>
					</g>
				</g>
			</g>
		</g>
		<g>
			<g>
				<g>
					<g>
						<path class="st0" d="M207.31,25.76c0.13-0.9,0.64-0.77,1.16-0.13l41.85,46.98l41.2-46.98c0.51-0.64,1.03-0.77,1.16,0.13
							l5.14,88.19h-22.98l-2.06-37.23l-21.82,25.29c-0.38,0.38-0.77,0.38-1.16,0l-22.72-25.42l-2.05,37.35h-22.85L207.31,25.76z"/>
					</g>
				</g>
				<g>
					<g>
						<path class="st2" d="M297.81,123.84h-22.98c-5.25,0-9.59-4.1-9.88-9.35l-0.71-12.74l-5.8,6.72c-0.16,0.19-0.33,0.37-0.51,0.55
							c-4.1,4.08-10.99,4.09-15.11,0.02c-0.14-0.14-0.28-0.28-0.41-0.43l-6.77-7.58l-0.74,13.46c-0.29,5.25-4.63,9.35-9.88,9.35
							h-22.85c-2.72,0-5.33-1.12-7.2-3.1c-1.87-1.98-2.84-4.65-2.68-7.37l5.14-88.19c0.02-0.27,0.04-0.55,0.08-0.81
							c0.75-5.3,5.06-9.15,10.23-9.15c3.16,0,6.07,1.4,8.23,3.95l34.29,38.5l33.72-38.45c2.16-2.58,5.08-4,8.26-4
							c5.17,0,9.47,3.84,10.23,9.13c0.04,0.28,0.07,0.56,0.09,0.84l5.13,88.19c0.16,2.72-0.81,5.38-2.68,7.37
							C303.14,122.72,300.53,123.84,297.81,123.84z M284.19,104.05h3.12l-3.2-54.97l-17.33,19.76c2.59-1.97,6.03-2.56,9.18-1.49
							c3.82,1.3,6.47,4.79,6.69,8.82L284.19,104.05z M212.66,104.05h2.99l1.54-28c0.22-4,2.83-7.47,6.61-8.8
							c3.78-1.33,7.99-0.24,10.65,2.74l15.8,17.67l6.53-7.57c-1.78,1.54-4.06,2.4-6.44,2.41c-0.01,0-0.03,0-0.04,0
							c-2.82,0-5.51-1.21-7.39-3.31l-27.04-30.36L212.66,104.05z"/>
					</g>
				</g>
			</g>
			<g>
				<g>
					<g>
						<path class="st0" d="M307.72,69.97c0-26.13,20.56-44.35,44.41-44.35c23.85,0,44.42,18.22,44.42,44.35
							c0,26.13-20.57,44.48-44.42,44.48C328.28,114.45,307.72,96.1,307.72,69.97z M373.91,69.97c0-13.64-7.91-24.21-21.78-24.21
							c-13.87,0-21.78,10.58-21.78,24.21c0,13.64,7.91,24.34,21.78,24.34C366,94.31,373.91,83.61,373.91,69.97z"/>
					</g>
				</g>
				<g>
					<g>
						<path class="st2" d="M352.13,124.35c-30.46,0-54.31-23.88-54.31-54.37c0-30.42,23.86-54.24,54.31-54.24
							c30.46,0,54.31,23.83,54.31,54.24C406.44,100.46,382.59,124.35,352.13,124.35z M352.13,35.52
							c-19.68,0-34.52,14.81-34.52,34.45c0,19.39,15.16,34.58,34.52,34.58c19.35,0,34.52-15.19,34.52-34.58
							C386.65,50.33,371.81,35.52,352.13,35.52z M352.13,104.21c-18.65,0-31.68-14.08-31.68-34.24c0-20.08,13.03-34.11,31.68-34.11
							c18.65,0,31.68,14.03,31.68,34.11C383.81,90.13,370.78,104.21,352.13,104.21z M352.13,55.65c-10.73,0-11.88,10.01-11.88,14.32
							c0,3.39,0.86,14.45,11.88,14.45c11.03,0,11.89-11.06,11.89-14.45C364.02,65.67,362.86,55.65,352.13,55.65z"/>
					</g>
				</g>
			</g>
			<g>
				<g>
					<g>
						<g>
							<path class="st0" d="M439.32,114.32c-22.91,0-32.83-11.45-32.83-27.36c0-12.22,5.86-20.49,23.16-26.22l11.45-3.82
								c4.2-1.4,6.11-3.05,6.11-6.36c0-3.44-2.8-5.98-8.4-5.98c-6.87,0-10.69,2.55-14.25,6.24l-13.23-13.87
								c5.09-5.98,13.49-11.45,28.76-11.45c15.4,0,29.52,8.78,29.52,25.83c0,14.25-8.91,21.89-21.51,26.09l-10.18,3.44
								c-5.73,1.91-8.53,3.69-8.53,7.38c0,4.84,4.07,6.87,10.94,6.87c8.65,0,13.87-4.2,18.07-9.42l16.8,12.6
								C469.86,105.41,458.79,114.32,439.32,114.32z"/>
						</g>
					</g>
					<g>
						<g>
							<path class="st2" d="M439.32,124.22c-20.66,0-42.73-9.79-42.73-37.26c0-16.86,9.15-25.83,19.1-31.1l-11.52-12.08
								c-3.5-3.67-3.66-9.38-0.38-13.24c8.43-9.91,20.64-14.94,36.3-14.94c22.84,0,39.42,15.03,39.42,35.73
								c0,8.73-2.65,19.59-13.33,27.82l14.97,11.22c2.1,1.57,3.49,3.92,3.86,6.52c0.37,2.6-0.3,5.24-1.88,7.34
								C477.52,111.69,464.39,124.22,439.32,124.22z M447.91,36.48c6.27,2.84,9.2,8.61,9.2,14.08c0,5.23-2.24,12.21-12.88,15.75
								l-11.45,3.82c-15.16,5.02-16.4,10.59-16.4,16.83c0,6.42,1.74,14.65,15.15,16.88c-11.35-3.41-12.04-13.3-12.04-15.61
								c0-11.67,11.11-15.38,15.29-16.77l10.15-3.42c12.99-4.33,14.77-10.59,14.77-16.71C459.71,42.91,454.3,38.38,447.91,36.48z
								 M459.28,98.71c-1.59,1.2-3.44,2.38-5.56,3.38c2.35-0.85,4.37-1.87,6.12-2.96L459.28,98.71z"/>
						</g>
					</g>
				</g>
			</g>
			<g>
				<g>
					<g>
						<path class="st0" d="M147.85,114.45c-23.85,0-44.42-18.35-44.42-44.48c0-26.13,20.57-44.35,44.42-44.35
							c23.85,0,44.41,18.22,44.41,44.35C192.27,96.1,171.7,114.45,147.85,114.45z M147.85,94.31c13.87,0,21.78-10.71,21.78-24.34
							c0-13.64-7.91-24.21-21.78-24.21c-13.87,0-21.78,10.58-21.78,24.21C126.07,83.61,133.98,94.31,147.85,94.31z"/>
					</g>
				</g>
				<g>
					<g>
						<path class="st2" d="M147.85,124.35c-30.46,0-54.31-23.88-54.31-54.37c0-30.42,23.86-54.24,54.31-54.24
							c30.45,0,54.31,23.83,54.31,54.24C202.16,100.46,178.31,124.35,147.85,124.35z M147.85,35.52
							c-19.68,0-34.52,14.81-34.52,34.45c0,19.39,15.16,34.58,34.52,34.58c19.35,0,34.52-15.19,34.52-34.58
							C182.37,50.33,167.53,35.52,147.85,35.52z M147.85,104.21c-18.65,0-31.68-14.08-31.68-34.24c0-20.08,13.03-34.11,31.68-34.11
							s31.68,14.03,31.68,34.11C179.53,90.13,166.5,104.21,147.85,104.21z M147.85,55.65c-10.73,0-11.89,10.01-11.89,14.32
							c0,3.39,0.86,14.45,11.89,14.45c11.03,0,11.88-11.06,11.88-14.45C159.74,65.67,158.58,55.65,147.85,55.65z"/>
					</g>
				</g>
			</g>
			<g>
				<g>
					<g>
						<g>
							<path class="st0" d="M24.78,98.28l16.8-12.6c4.2,5.22,9.42,9.42,18.07,9.42c6.87,0,10.94-2.04,10.94-6.87
								c0-3.69-2.8-5.47-8.53-7.38l-10.18-3.44c-12.6-4.2-21.51-11.83-21.51-26.09c0-17.05,14.13-25.83,29.52-25.83
								c15.27,0,23.67,5.47,28.76,11.45L75.43,50.82c-3.56-3.69-7.38-6.24-14.25-6.24c-5.6,0-8.4,2.55-8.4,5.98
								c0,3.31,1.91,4.96,6.11,6.36l11.45,3.82c17.31,5.73,23.16,14,23.16,26.22c0,15.91-9.93,27.36-32.83,27.36
								C41.19,114.32,30.12,105.41,24.78,98.28z"/>
						</g>
					</g>
					<g>
						<g>
							<path class="st2" d="M60.66,124.22c-25.07,0-38.21-12.53-43.81-19.99c-3.28-4.37-2.39-10.58,1.98-13.85L33.8,79.14
								c-10.67-8.23-13.32-19.08-13.32-27.82c0-20.7,16.58-35.73,39.42-35.73c15.65,0,27.86,5.03,36.3,14.94
								c3.28,3.86,3.12,9.58-0.38,13.25L84.3,55.85c9.94,5.27,19.1,14.24,19.1,31.1C103.39,114.43,81.32,124.22,60.66,124.22z
								 M52.08,36.48c-6.39,1.9-11.8,6.43-11.8,14.84c0,6.12,1.79,12.38,14.74,16.7l10.22,3.45c4.15,1.38,15.26,5.09,15.26,16.76
								c0,2.31-0.68,12.2-12.03,15.61c13.4-2.23,15.15-10.46,15.15-16.88c0-6.24-1.23-11.81-16.38-16.82l-11.47-3.83
								c-10.64-3.55-12.88-10.52-12.88-15.75C42.88,45.09,45.81,39.32,52.08,36.48z M40.15,99.13c1.62,1.02,3.49,1.97,5.63,2.78
								c-1.89-0.93-3.58-2.02-5.09-3.18L40.15,99.13z"/>
						</g>
					</g>
				</g>
			</g>
		</g>
	</g>
	<g>
		<g>
			<g>
				<g>
					<g>
						<path class="st0" d="M164.86,133.9h12.54c9.35,0,16.41,6.15,16.41,16.21c0,10.06-7.06,16.22-16.41,16.22h-12.54V133.9z
							 M176.45,158.98c5.24,0,8.49-3.48,8.49-8.87c0-5.39-3.24-8.87-8.49-8.87h-2.91v17.74H176.45z"/>
					</g>
				</g>
				<g>
					<g>
						<path class="st0" d="M177.41,171.28h-14.21c-1.81,0-3.28-1.47-3.28-3.28v-35.77c0-1.81,1.47-3.28,3.28-3.28h14.21
							c12.57,0,21.35,8.7,21.35,21.16C198.76,162.57,189.98,171.28,177.41,171.28z M178.49,146.61v7c0.86-0.48,1.5-1.48,1.5-3.5
							C179.99,148.09,179.35,147.09,178.49,146.61z"/>
					</g>
				</g>
			</g>
			<g>
				<g>
					<g>
						<path class="st0" d="M197.87,133.9h8.68v32.43h-8.68V133.9z"/>
					</g>
				</g>
				<g>
					<g>
						<path class="st0" d="M208.17,171.28h-11.94c-1.83,0-3.32-1.49-3.32-3.32v-35.69c0-1.83,1.49-3.32,3.32-3.32h11.94
							c1.83,0,3.32,1.49,3.32,3.32v35.69C211.49,169.79,210.01,171.28,208.17,171.28z"/>
					</g>
				</g>
			</g>
			<g>
				<g>
					<g>
						<path class="st0" d="M209.74,160.79l6.29-4.72c1.57,1.96,3.53,3.53,6.77,3.53c2.57,0,4.1-0.76,4.1-2.58
							c0-1.38-1.05-2.05-3.19-2.77l-3.82-1.29c-4.72-1.57-8.06-4.43-8.06-9.78c0-6.39,5.29-9.68,11.06-9.68
							c5.72,0,8.87,2.05,10.78,4.29l-4.96,5.2c-1.33-1.38-2.77-2.34-5.34-2.34c-2.1,0-3.15,0.95-3.15,2.24
							c0,1.24,0.72,1.86,2.29,2.39l4.29,1.43c6.49,2.15,8.68,5.25,8.68,9.82c0,5.96-3.72,10.25-12.3,10.25
							C215.89,166.8,211.74,163.46,209.74,160.79z"/>
					</g>
				</g>
				<g>
					<g>
						<path class="st0" d="M223.19,171.75c-9.93,0-15.17-5.01-17.41-7.99l-2.97-3.96l8.32-6.24c-3.36-3.2-4.24-7.14-4.24-10.37
							c0-8.48,6.74-14.63,16.01-14.63c6.25,0,11.14,2.03,14.55,6.03l2.89,3.4l-6.34,6.64c4.32,2.79,6.44,6.73,6.44,11.91
							C240.44,163.9,235.91,171.75,223.19,171.75z"/>
					</g>
				</g>
			</g>
			<g>
				<g>
					<g>
						<path class="st0" d="M239.45,133.9h22.75v7.3h-14.07v7.54h11.73v6.91h-11.73v3.39h14.74v7.3h-23.42V133.9z"/>
					</g>
				</g>
				<g>
					<g>
						<path class="st0" d="M266.65,171.28h-30.98c-0.64,0-1.17-0.52-1.17-1.17v-39.99c0-0.64,0.52-1.17,1.17-1.17h30.31
							c0.64,0,1.17,0.52,1.17,1.17v14.86c0,0.64-0.52,1.17-1.17,1.17l0,0c-0.64,0-1.17,0.52-1.17,1.17v5.6
							c0,0.64,0.52,1.17,1.17,1.17h0.67c0.64,0,1.17,0.52,1.17,1.17v14.86C267.82,170.75,267.29,171.28,266.65,171.28z"/>
					</g>
				</g>
			</g>
			<g>
				<g>
					<g>
						<path class="st0" d="M275.22,150.16v16.17h-8.16v-32.86c0-0.29,0.14-0.52,0.67-0.1l20.37,16.79V133.9h8.15v32.91
							c0,0.38-0.14,0.52-0.67,0.09L275.22,150.16z M279.46,130.27c-0.81,0-1.14,0.57-1.43,1.62l-5.25-0.67
							c0.67-4.96,3.29-7.15,5.96-7.15c2.38,0,4.1,1.86,5.1,1.86c0.81,0,1.14-0.57,1.43-1.62l5.25,0.67
							c-0.62,4.86-3.29,7.15-5.96,7.15C282.18,132.13,280.47,130.27,279.46,130.27z"/>
					</g>
				</g>
				<g>
					<g>
						<path class="st0" d="M296.07,172.11c-1.29,0-2.51-0.47-3.63-1.39l-10.78-8.86c-0.6-0.49-1.49-0.07-1.49,0.7v7.8
							c0,0.5-0.41,0.91-0.91,0.91h-16.23c-0.5,0-0.91-0.41-0.91-0.91v-36.9c0-2.96,2.27-5.28,5.16-5.28c0.36,0,0.71,0.03,1.05,0.1
							c2.17-8.44,9.19-9.91,13.14-8.79l0.14-0.51l13.54,1.59c0.5,0.06,0.86,0.52,0.8,1.02l-0.51,4c-0.1,0.78-0.24,1.52-0.42,2.22
							c-0.14,0.58,0.29,1.13,0.88,1.13h4.38c0.5,0,0.91,0.41,0.91,0.91v36.94C301.2,169.78,298.95,172.11,296.07,172.11z
							 M279.96,137.04l1.69,1.4c0.6,0.49,1.49,0.07,1.49-0.7l0,0c0-0.42-0.28-0.8-0.69-0.88c-0.21-0.05-0.41-0.1-0.61-0.15
							l-0.14,0.51L279.96,137.04z"/>
					</g>
				</g>
			</g>
			<g>
				<g>
					<g>
						<path class="st0" d="M300.3,150.11c0-9.78,8.06-16.6,17.41-16.6c9.35,0,17.41,6.82,17.41,16.6s-8.06,16.64-17.41,16.64
							C308.36,166.75,300.3,159.89,300.3,150.11z M326.25,150.11c0-5.1-3.1-9.06-8.54-9.06c-5.44,0-8.54,3.96-8.54,9.06
							c0,5.1,3.1,9.11,8.54,9.11C323.15,159.22,326.25,155.21,326.25,150.11z"/>
					</g>
				</g>
				<g>
					<g>
						<path class="st0" d="M317.71,171.7c-12.54,0-22.36-9.48-22.36-21.59c0-12.08,9.82-21.55,22.36-21.55
							c12.53,0,22.35,9.46,22.35,21.55C340.06,162.22,330.25,171.7,317.71,171.7z M317.71,146c-2.38,0-3.59,1.38-3.59,4.11
							c0,1.9,0.62,4.16,3.59,4.16c2.97,0,3.59-2.26,3.59-4.16C321.3,147.38,320.09,146,317.71,146z"/>
					</g>
				</g>
			</g>
		</g>
		<g>
			<g>
				<g>
					<g>
						<path class="st0" d="M207.31,25.76c0.13-0.9,0.64-0.77,1.16-0.13l41.85,46.98l41.2-46.98c0.51-0.64,1.03-0.77,1.16,0.13
							l5.14,88.19h-22.98l-2.06-37.23l-21.82,25.29c-0.38,0.38-0.77,0.38-1.16,0l-22.72-25.42l-2.05,37.35h-22.85L207.31,25.76z"/>
					</g>
				</g>
				<g>
					<g>
						<path class="st0" d="M299.19,118.89H273.6c-1.93,0-3.53-1.51-3.64-3.44l-1.25-22.68c-0.07-1.28-1.67-1.83-2.51-0.86
							l-11.75,13.6c-2.23,2.22-5.88,2.23-8.13,0.01l-12.65-14.14c-0.85-0.95-2.42-0.4-2.49,0.88l-1.27,23.19
							c-0.11,1.93-1.7,3.44-3.64,3.44h-25.47c-2.1,0-3.76-1.76-3.64-3.86l5.26-89.97c0.48-3.36,3.1-4.9,5.33-4.9
							c1,0,2.94,0.31,4.59,2.37l37.96,42.6l37.51-42.77c1.5-1.89,3.43-2.2,4.44-2.2c2.23,0,4.85,1.53,5.33,4.89l0.04,0.42
							l5.21,89.57C302.95,117.13,301.29,118.89,299.19,118.89z M279.51,109h13.05l-4.21-72.26l-38.01,43.35l-38.71-43.46L207.42,109
							h12.92l2.45-44.62l27.53,30.79l26.72-30.97L279.51,109z"/>
					</g>
				</g>
			</g>
			<g>
				<g>
					<g>
						<path class="st0" d="M307.72,69.97c0-26.13,20.56-44.35,44.41-44.35c23.85,0,44.42,18.22,44.42,44.35
							c0,26.13-20.57,44.48-44.42,44.48C328.28,114.45,307.72,96.1,307.72,69.97z M373.91,69.97c0-13.64-7.91-24.21-21.78-24.21
							c-13.87,0-21.78,10.58-21.78,24.21c0,13.64,7.91,24.34,21.78,24.34C366,94.31,373.91,83.61,373.91,69.97z"/>
					</g>
				</g>
				<g>
					<g>
						<path class="st0" d="M352.13,119.4c-27.68,0-49.36-21.71-49.36-49.43c0-27.64,21.68-49.3,49.36-49.3
							c27.68,0,49.36,21.65,49.36,49.3C401.49,97.69,379.81,119.4,352.13,119.4z M352.13,30.57c-22.13,0-39.47,17.31-39.47,39.4
							c0,22.17,17.34,39.53,39.47,39.53s39.47-17.36,39.47-39.53C391.6,47.88,374.26,30.57,352.13,30.57z M352.13,99.26
							c-15.74,0-26.73-12.05-26.73-29.29c0-17.17,10.99-29.16,26.73-29.16s26.73,11.99,26.73,29.16
							C378.86,87.22,367.87,99.26,352.13,99.26z M352.13,50.71c-12.41,0-16.84,9.95-16.84,19.26c0,8.95,4.41,19.39,16.84,19.39
							c12.43,0,16.84-10.45,16.84-19.39C368.97,60.66,364.54,50.71,352.13,50.71z"/>
					</g>
				</g>
			</g>
			<g>
				<g>
					<g>
						<g>
							<path class="st0" d="M439.32,114.32c-22.91,0-32.83-11.45-32.83-27.36c0-12.22,5.86-20.49,23.16-26.22l11.45-3.82
								c4.2-1.4,6.11-3.05,6.11-6.36c0-3.44-2.8-5.98-8.4-5.98c-6.87,0-10.69,2.55-14.25,6.24l-13.23-13.87
								c5.09-5.98,13.49-11.45,28.76-11.45c15.4,0,29.52,8.78,29.52,25.83c0,14.25-8.91,21.89-21.51,26.09l-10.18,3.44
								c-5.73,1.91-8.53,3.69-8.53,7.38c0,4.84,4.07,6.87,10.94,6.87c8.65,0,13.87-4.2,18.07-9.42l16.8,12.6
								C469.86,105.41,458.79,114.32,439.32,114.32z"/>
						</g>
					</g>
					<g>
						<g>
							<path class="st0" d="M439.32,119.27c-23.66,0-37.78-12.08-37.78-32.31c0-13.16,6.06-22.06,19.45-28.16
								c1.48-0.67,1.88-2.59,0.75-3.77l-15.61-16.37c-0.83-0.87-0.87-2.23-0.09-3.14l1.52-1.78c7.45-8.76,18.39-13.2,32.53-13.2
								c20.3,0,34.47,12.66,34.47,30.78c0,14.92-8.37,25.28-24.89,30.78l-10.16,3.43c-0.04,0.01-0.09,0.03-0.13,0.04
								c-2.5,0.84-1.9,4.55,0.74,4.57c0.08,0,0.15,0,0.23,0c5.77,0,9.89-2.19,14.21-7.57l1.57-1.96c0.79-0.99,2.23-1.17,3.24-0.41
								l20.89,15.66c1.04,0.78,1.25,2.25,0.47,3.29l-1.56,2.08C474.12,107.98,462.23,119.27,439.32,119.27z M438.81,39.63
								c9.22,0,13.35,5.49,13.35,10.93c0,7.89-6.9,10.19-9.49,11.06l-11.45,3.82c-16.42,5.43-19.78,12.53-19.78,21.52
								c0,18.52,15.16,22.41,27.89,22.41c12.7,0,21.1-4.1,26.41-8.37c1.19-0.96,1.14-2.78-0.08-3.7l-5.03-3.77
								c-0.89-0.67-2.12-0.61-2.96,0.12c-3.95,3.43-9.47,6.4-17.32,6.4c-14.34,0-15.89-8.27-15.89-11.82
								c0-8.11,7.75-10.69,11.91-12.08l10.16-3.43c12.38-4.13,18.14-10.92,18.14-21.4c0-14.43-12.34-20.89-24.57-20.89
								c-8.03,0-14.49,1.61-19.55,4.91c-1.25,0.81-1.47,2.54-0.45,3.61l3.39,3.55c0.75,0.79,1.96,0.97,2.89,0.4
								C429.47,41,433.42,39.63,438.81,39.63z M438.81,49.53c-5.15,0-7.73,1.66-10.7,4.73l-2.6,2.69c0.84-0.31,1.7-0.61,2.59-0.9
								l11.44-3.82c2.1-0.7,2.63-1.19,2.71-1.28c-0.01-0.01,0.02-0.14,0.02-0.39C442.26,49.91,440.51,49.53,438.81,49.53z"/>
						</g>
					</g>
				</g>
			</g>
			<g>
				<g>
					<g>
						<path class="st0" d="M147.85,114.45c-23.85,0-44.42-18.35-44.42-44.48c0-26.13,20.57-44.35,44.42-44.35
							c23.85,0,44.41,18.22,44.41,44.35C192.27,96.1,171.7,114.45,147.85,114.45z M147.85,94.31c13.87,0,21.78-10.71,21.78-24.34
							c0-13.64-7.91-24.21-21.78-24.21c-13.87,0-21.78,10.58-21.78,24.21C126.07,83.61,133.98,94.31,147.85,94.31z"/>
					</g>
				</g>
				<g>
					<g>
						<path class="st0" d="M147.85,119.4c-27.68,0-49.36-21.71-49.36-49.43c0-27.64,21.68-49.3,49.36-49.3
							c27.68,0,49.36,21.65,49.36,49.3C197.22,97.69,175.53,119.4,147.85,119.4z M147.85,30.57c-22.13,0-39.47,17.31-39.47,39.4
							c0,22.17,17.33,39.53,39.47,39.53c22.13,0,39.46-17.36,39.46-39.53C187.32,47.88,169.98,30.57,147.85,30.57z M147.85,99.26
							c-15.74,0-26.73-12.05-26.73-29.29c0-17.17,10.99-29.16,26.73-29.16s26.73,11.99,26.73,29.16
							C174.58,87.22,163.59,99.26,147.85,99.26z M147.85,50.71c-12.41,0-16.83,9.95-16.83,19.26c0,8.95,4.41,19.39,16.83,19.39
							c12.42,0,16.83-10.45,16.83-19.39C164.68,60.66,160.26,50.71,147.85,50.71z"/>
					</g>
				</g>
			</g>
			<g>
				<g>
					<g>
						<g>
							<path class="st0" d="M24.78,98.28l16.8-12.6c4.2,5.22,9.42,9.42,18.07,9.42c6.87,0,10.94-2.04,10.94-6.87
								c0-3.69-2.8-5.47-8.53-7.38l-10.18-3.44c-12.6-4.2-21.51-11.83-21.51-26.09c0-17.05,14.13-25.83,29.52-25.83
								c15.27,0,23.67,5.47,28.76,11.45L75.43,50.82c-3.56-3.69-7.38-6.24-14.25-6.24c-5.6,0-8.4,2.55-8.4,5.98
								c0,3.31,1.91,4.96,6.11,6.36l11.45,3.82c17.31,5.73,23.16,14,23.16,26.22c0,15.91-9.93,27.36-32.83,27.36
								C41.19,114.32,30.12,105.41,24.78,98.28z"/>
						</g>
					</g>
					<g>
						<g>
							<path class="st0" d="M60.66,119.27c-22.92,0-34.8-11.29-39.85-18.02l-1.56-2.08c-0.78-1.04-0.57-2.51,0.47-3.28l20.89-15.67
								c1.01-0.76,2.44-0.58,3.23,0.41l1.58,1.96c4.33,5.38,8.45,7.57,14.22,7.57c0.08,0,0.16,0,0.24,0
								c2.64-0.02,3.24-3.73,0.74-4.56c-0.04-0.01-0.09-0.03-0.13-0.04L50.3,82.1c-16.5-5.5-24.87-15.85-24.87-30.78
								c0-18.12,14.18-30.78,34.47-30.78c14.14,0,25.08,4.44,32.53,13.2l1.52,1.79c0.78,0.91,0.74,2.27-0.09,3.14L78.24,55.03
								c-1.12,1.18-0.73,3.09,0.75,3.76c13.39,6.1,19.46,14.99,19.46,28.16C98.45,107.19,84.32,119.27,60.66,119.27z M34.33,97.3
								c-1.22,0.91-1.27,2.74-0.08,3.69c5.31,4.27,13.71,8.38,26.41,8.38c12.72,0,27.89-3.89,27.89-22.41
								c0-8.99-3.36-16.09-19.77-21.52l-11.46-3.82c-2.6-0.87-9.49-3.17-9.49-11.06c0-5.44,4.13-10.93,13.35-10.93
								c5.39,0,9.34,1.37,12.44,3.29c0.93,0.57,2.14,0.39,2.89-0.4l3.4-3.56c1.02-1.07,0.8-2.8-0.45-3.61
								c-5.06-3.3-11.52-4.91-19.55-4.91c-12.23,0-24.57,6.46-24.57,20.89c0,10.48,5.76,17.27,18.12,21.39l10.2,3.44
								c4.15,1.38,11.9,3.97,11.9,12.07c0,3.55-1.55,11.82-15.89,11.82c-7.85,0-13.37-2.98-17.32-6.41
								c-0.84-0.73-2.07-0.79-2.96-0.12L34.33,97.3z M57.76,50.99c0.02,0,0.49,0.51,2.69,1.24l11.45,3.82
								c0.88,0.29,1.74,0.59,2.57,0.9l-2.6-2.69c-2.96-3.06-5.54-4.73-10.7-4.73c-1.7,0-3.45,0.39-3.45,1.03
								C57.72,50.86,57.76,50.98,57.76,50.99L57.76,50.99z"/>
						</g>
					</g>
				</g>
			</g>
		</g>
	</g>
	<g>
		<g>
			<g>
				<g>
					<g>
						<path class="st3" d="M164.86,133.9h12.54c9.35,0,16.41,6.15,16.41,16.21c0,10.06-7.06,16.22-16.41,16.22h-12.54V133.9z
							 M176.45,158.98c5.24,0,8.49-3.48,8.49-8.87c0-5.39-3.24-8.87-8.49-8.87h-2.91v17.74H176.45z"/>
					</g>
				</g>
			</g>
			<g>
				<g>
					<g>
						<path class="st3" d="M197.87,133.9h8.68v32.43h-8.68V133.9z"/>
					</g>
				</g>
			</g>
			<g>
				<g>
					<g>
						<path class="st3" d="M209.74,160.79l6.29-4.72c1.57,1.96,3.53,3.53,6.77,3.53c2.57,0,4.1-0.76,4.1-2.58
							c0-1.38-1.05-2.05-3.19-2.77l-3.82-1.29c-4.72-1.57-8.06-4.43-8.06-9.78c0-6.39,5.29-9.68,11.06-9.68
							c5.72,0,8.87,2.05,10.78,4.29l-4.96,5.2c-1.33-1.38-2.77-2.34-5.34-2.34c-2.1,0-3.15,0.95-3.15,2.24
							c0,1.24,0.72,1.86,2.29,2.39l4.29,1.43c6.49,2.15,8.68,5.25,8.68,9.82c0,5.96-3.72,10.25-12.3,10.25
							C215.89,166.8,211.74,163.46,209.74,160.79z"/>
					</g>
				</g>
			</g>
			<g>
				<g>
					<g>
						<path class="st3" d="M239.45,133.9h22.75v7.3h-14.07v7.54h11.73v6.91h-11.73v3.39h14.74v7.3h-23.42V133.9z"/>
					</g>
				</g>
			</g>
			<g>
				<g>
					<g>
						<path class="st3" d="M275.22,150.16v16.17h-8.16v-32.86c0-0.29,0.14-0.52,0.67-0.1l20.37,16.79V133.9h8.15v32.91
							c0,0.38-0.14,0.52-0.67,0.09L275.22,150.16z M279.46,130.27c-0.81,0-1.14,0.57-1.43,1.62l-5.25-0.67
							c0.67-4.96,3.29-7.15,5.96-7.15c2.38,0,4.1,1.86,5.1,1.86c0.81,0,1.14-0.57,1.43-1.62l5.25,0.67
							c-0.62,4.86-3.29,7.15-5.96,7.15C282.18,132.13,280.47,130.27,279.46,130.27z"/>
					</g>
				</g>
			</g>
			<g>
				<g>
					<g>
						<path class="st3" d="M300.3,150.11c0-9.78,8.06-16.6,17.41-16.6c9.35,0,17.41,6.82,17.41,16.6s-8.06,16.64-17.41,16.64
							C308.36,166.75,300.3,159.89,300.3,150.11z M326.25,150.11c0-5.1-3.1-9.06-8.54-9.06c-5.44,0-8.54,3.96-8.54,9.06
							c0,5.1,3.1,9.11,8.54,9.11C323.15,159.22,326.25,155.21,326.25,150.11z"/>
					</g>
				</g>
			</g>
		</g>
		<g>
			<g>
				<g>
					<g>
						<path class="st4" d="M207.31,25.76c0.13-0.9,0.64-0.77,1.16-0.13l41.85,46.98l41.2-46.98c0.51-0.64,1.03-0.77,1.16,0.13
							l5.14,88.19h-22.98l-2.06-37.23l-21.82,25.29c-0.38,0.38-0.77,0.38-1.16,0l-22.72-25.42l-2.05,37.35h-22.85L207.31,25.76z"/>
					</g>
				</g>
			</g>
			<g>
				<g>
					<g>
						<path class="st3" d="M307.72,69.97c0-26.13,20.56-44.35,44.41-44.35c23.85,0,44.42,18.22,44.42,44.35
							c0,26.13-20.57,44.48-44.42,44.48C328.28,114.45,307.72,96.1,307.72,69.97z M373.91,69.97c0-13.64-7.91-24.21-21.78-24.21
							c-13.87,0-21.78,10.58-21.78,24.21c0,13.64,7.91,24.34,21.78,24.34C366,94.31,373.91,83.61,373.91,69.97z"/>
					</g>
				</g>
			</g>
			<g>
				<g>
					<g>
						<g>
							<path class="st3" d="M439.32,114.32c-22.91,0-32.83-11.45-32.83-27.36c0-12.22,5.86-20.49,23.16-26.22l11.45-3.82
								c4.2-1.4,6.11-3.05,6.11-6.36c0-3.44-2.8-5.98-8.4-5.98c-6.87,0-10.69,2.55-14.25,6.24l-13.23-13.87
								c5.09-5.98,13.49-11.45,28.76-11.45c15.4,0,29.52,8.78,29.52,25.83c0,14.25-8.91,21.89-21.51,26.09l-10.18,3.44
								c-5.73,1.91-8.53,3.69-8.53,7.38c0,4.84,4.07,6.87,10.94,6.87c8.65,0,13.87-4.2,18.07-9.42l16.8,12.6
								C469.86,105.41,458.79,114.32,439.32,114.32z"/>
						</g>
					</g>
				</g>
			</g>
			<g>
				<g>
					<g>
						<path class="st3" d="M147.85,114.45c-23.85,0-44.42-18.35-44.42-44.48c0-26.13,20.57-44.35,44.42-44.35
							c23.85,0,44.41,18.22,44.41,44.35C192.27,96.1,171.7,114.45,147.85,114.45z M147.85,94.31c13.87,0,21.78-10.71,21.78-24.34
							c0-13.64-7.91-24.21-21.78-24.21c-13.87,0-21.78,10.58-21.78,24.21C126.07,83.61,133.98,94.31,147.85,94.31z"/>
					</g>
				</g>
			</g>
			<g>
				<g>
					<g>
						<g>
							<path class="st3" d="M24.78,98.28l16.8-12.6c4.2,5.22,9.42,9.42,18.07,9.42c6.87,0,10.94-2.04,10.94-6.87
								c0-3.69-2.8-5.47-8.53-7.38l-10.18-3.44c-12.6-4.2-21.51-11.83-21.51-26.09c0-17.05,14.13-25.83,29.52-25.83
								c15.27,0,23.67,5.47,28.76,11.45L75.43,50.82c-3.56-3.69-7.38-6.24-14.25-6.24c-5.6,0-8.4,2.55-8.4,5.98
								c0,3.31,1.91,4.96,6.11,6.36l11.45,3.82c17.31,5.73,23.16,14,23.16,26.22c0,15.91-9.93,27.36-32.83,27.36
								C41.19,114.32,30.12,105.41,24.78,98.28z"/>
						</g>
					</g>
				</g>
			</g>
		</g>
	</g>
</g>
</svg>
